<svg width="301" height="159" viewBox="0 0 301 159" fill="none" xmlns="http://www.w3.org/2000/svg">
<path d="M300.5 125C300.5 127.187 299.521 129.364 297.572 131.517C295.62 133.672 292.717 135.774 288.937 137.793C281.379 141.831 270.408 145.482 256.809 148.554C229.62 154.696 192.034 158.5 150.5 158.5C108.966 158.5 71.38 154.696 44.1906 148.554C30.5919 145.482 19.6213 141.831 12.0626 137.793C8.28284 135.774 5.38028 133.672 3.4282 131.517C1.47875 129.364 0.5 127.187 0.5 125C0.5 122.813 1.47875 120.636 3.4282 118.483C5.38028 116.328 8.28284 114.226 12.0626 112.207C19.6213 108.169 30.5919 104.518 44.1906 101.446C71.38 95.3036 108.966 91.5 150.5 91.5C192.034 91.5 229.62 95.3036 256.809 101.446C270.408 104.518 281.379 108.169 288.937 112.207C292.717 114.226 295.62 116.328 297.572 118.483C299.521 120.636 300.5 122.813 300.5 125Z" fill="url(#paint0_linear)" stroke="black"/>
<rect x="94.5" y="12.5" width="113" height="110" fill="url(#paint1_linear)" stroke="black"/>
<path d="M207.5 12C207.5 12.656 207.187 13.3466 206.483 14.0699C205.779 14.7951 204.713 15.5188 203.298 16.2233C200.469 17.6316 196.342 18.9139 191.202 19.996C180.93 22.1585 166.716 23.5 151 23.5C135.284 23.5 121.07 22.1585 110.798 19.996C105.658 18.9139 101.531 17.6316 98.7021 16.2233C97.2866 15.5188 96.2215 14.7951 95.5166 14.0699C94.8135 13.3466 94.5 12.656 94.5 12C94.5 11.344 94.8135 10.6534 95.5166 9.93008C96.2215 9.20486 97.2866 8.48124 98.7021 7.77668C101.531 6.36844 105.658 5.08612 110.798 4.00399C121.07 1.84147 135.284 0.5 151 0.5C166.716 0.5 180.93 1.84147 191.202 4.00399C196.342 5.08612 200.469 6.36844 203.298 7.77668C204.713 8.48124 205.779 9.20486 206.483 9.93008C207.187 10.6534 207.5 11.344 207.5 12Z" fill="url(#paint2_linear)" stroke="#111111"/>
<path d="M207.5 122C207.5 124.103 206.068 126.209 203.233 128.209C200.41 130.199 196.294 132.011 191.162 133.542C180.905 136.601 166.706 138.5 151 138.5C135.294 138.5 121.095 136.601 110.838 133.542C105.706 132.011 101.59 130.199 98.7675 128.209C95.9317 126.209 94.5 124.103 94.5 122C94.5 119.897 95.9317 117.791 98.7675 115.791C101.59 113.801 105.706 111.989 110.838 110.458C121.095 107.399 135.294 105.5 151 105.5C166.706 105.5 180.905 107.399 191.162 110.458C196.294 111.989 200.41 113.801 203.233 115.791C206.068 117.791 207.5 119.897 207.5 122Z" fill="url(#paint3_linear)" stroke="black"/>
<rect x="95" y="91" width="112" height="31" fill="url(#paint4_linear)"/>
<defs>
<linearGradient id="paint0_linear" x1="150.5" y1="91" x2="150.5" y2="159" gradientUnits="userSpaceOnUse">
<stop stop-color="#0655A9"/>
<stop offset="1" stop-color="#0655A9" stop-opacity="0"/>
</linearGradient>
<linearGradient id="paint1_linear" x1="151" y1="12" x2="151" y2="123" gradientUnits="userSpaceOnUse">
<stop stop-color="#675997"/>
<stop offset="1" stop-color="#291B5C"/>
</linearGradient>
<linearGradient id="paint2_linear" x1="208" y1="12" x2="94" y2="12" gradientUnits="userSpaceOnUse">
<stop stop-color="#C1357E"/>
<stop offset="0.54156" stop-color="#AA2369"/>
<stop offset="1" stop-color="#C1357E"/>
</linearGradient>
<linearGradient id="paint3_linear" x1="151" y1="105" x2="151" y2="139" gradientUnits="userSpaceOnUse">
<stop stop-color="#675997"/>
<stop offset="1" stop-color="#291B5C"/>
</linearGradient>
<linearGradient id="paint4_linear" x1="151" y1="91" x2="151" y2="122" gradientUnits="userSpaceOnUse">
<stop stop-color="#3B2D6D"/>
<stop offset="1" stop-color="#473979"/>
</linearGradient>
</defs>
</svg>
